<svg id="Icons" xmlns="http://www.w3.org/2000/svg" viewBox="0 0 512 512"><defs><style>.cls-1{fill:#efb732;}.cls-2{fill:#e2a427;}.cls-3{fill:#f4e6f4;}.cls-4{fill:#decee5;}.cls-5{fill:#fff;}.cls-6{fill:#3e4e60;}.cls-7{fill:#334353;}.cls-8{fill:#3f5d77;}.cls-9{fill:#2e3140;}.cls-10{fill:#29a3fb;}.cls-11{fill:#0989d8;}.cls-12{fill:#e52e44;}.cls-13{fill:#fa4654;}.cls-14{fill:#3f6c8e;}</style></defs><title>50-Virus-Icons</title><path class="cls-1" d="M512,256c0,141.38-114.62,256-256,256C127.54,512,21.16,417.36,2.81,294A257.45,257.45,0,0,1,0,256C0,114.62,114.62,0,256,0,392.45,0,504,106.76,511.58,241.3,511.86,246.16,512,251.07,512,256Z"/><path class="cls-2" d="M512,256c0,141.38-114.62,256-256,256C127.54,512,21.16,417.36,2.81,294c1.51-.54,3-1.15,4.49-1.81,9.93-4.45,18.6-11.41,28.69-15.47a55.81,55.81,0,0,1,42.66.63C91.59,283,102.84,293.78,117,294.6c11.66.68,22.71-5.84,30.87-14.19S162,261.87,169,252.6c9.77-12.78,22.07-24.11,37-30s32.87-5.77,46.41,2.92c12.62,8.11,19.87,22.15,29.59,33.56,13.82,16.23,35.65,27.79,56.36,22.66,16.74-4.15,31.1-18.54,48.27-16.89s28.53,18.62,43.83,26.83c20.13,10.8,48,3.63,60.43-15.53,7.22-11.18,11.41-26.86,20.61-34.83C511.86,246.16,512,251.07,512,256Z"/><path class="cls-3" d="M97.82,424.34H414.18a8.78,8.78,0,0,0,8.77-8.78V132.82H89.05V415.56A8.78,8.78,0,0,0,97.82,424.34Z"/><path class="cls-4" d="M153.43,424.32H97.84a8.77,8.77,0,0,1-8.79-8.75V132.83h33.77V393.75A30.6,30.6,0,0,0,153.43,424.32Z"/><ellipse class="cls-5" cx="410.1" cy="181.45" rx="12.85" ry="41.9"/><ellipse class="cls-5" cx="410.1" cy="256.57" rx="7.88" ry="25.71"/><path class="cls-6" d="M251.05,321.82h57.84a6.06,6.06,0,0,1,6.06,6.06v96.45a0,0,0,0,1,0,0h-63.9a0,0,0,0,1,0,0V321.82A0,0,0,0,1,251.05,321.82Z"/><rect class="cls-7" x="260.18" y="380" width="18.63" height="7" rx="3.5"/><ellipse class="cls-8" cx="304" cy="338.73" rx="6.66" ry="12.6"/><ellipse class="cls-8" cx="304" cy="364.75" rx="3.52" ry="8.8"/><path class="cls-7" d="M187.15,321.82h63.9a0,0,0,0,1,0,0v96.45a6.06,6.06,0,0,1-6.06,6.06H187.15a0,0,0,0,1,0,0V321.82A0,0,0,0,1,187.15,321.82Z" transform="translate(438.2 746.15) rotate(-180)"/><rect class="cls-9" x="223.29" y="380" width="18.63" height="7" rx="3.5" transform="translate(465.21 767.01) rotate(-180)"/><ellipse class="cls-6" cx="198.1" cy="338.73" rx="6.66" ry="12.6"/><ellipse class="cls-6" cx="198.1" cy="364.75" rx="3.52" ry="8.8"/><rect class="cls-10" x="346.96" y="151.87" width="43.37" height="70.63" rx="13.91"/><rect class="cls-10" x="346.96" y="234.28" width="43.37" height="70.63" rx="13.91"/><rect class="cls-10" x="346.96" y="316.69" width="43.37" height="70.63" rx="13.91"/><path class="cls-10" d="M155.14,165.79v42.8a13.91,13.91,0,0,1-13.91,13.91H125.68a14.15,14.15,0,0,1-2.86-.29,13.93,13.93,0,0,1-11-13.62v-42.8a13.93,13.93,0,0,1,11-13.63,14.15,14.15,0,0,1,2.86-.29h15.55A13.92,13.92,0,0,1,155.14,165.79Z"/><path class="cls-10" d="M155.14,248.2V291a13.91,13.91,0,0,1-13.91,13.91H125.68a14.15,14.15,0,0,1-2.86-.29,13.93,13.93,0,0,1-11-13.62V248.2a13.93,13.93,0,0,1,11-13.63,14.15,14.15,0,0,1,2.86-.29h15.55A13.92,13.92,0,0,1,155.14,248.2Z"/><path class="cls-10" d="M155.14,330.6v42.81a13.91,13.91,0,0,1-13.91,13.91H125.68a14.15,14.15,0,0,1-2.86-.29,13.93,13.93,0,0,1-11-13.62V330.6a13.93,13.93,0,0,1,11-13.62,14.15,14.15,0,0,1,2.86-.29h15.55A13.91,13.91,0,0,1,155.14,330.6Z"/><path class="cls-11" d="M122.82,152.16v70.05a13.93,13.93,0,0,1-11-13.62v-42.8A13.93,13.93,0,0,1,122.82,152.16Z"/><path class="cls-11" d="M122.82,234.57v70.05a13.93,13.93,0,0,1-11-13.62V248.2A13.93,13.93,0,0,1,122.82,234.57Z"/><path class="cls-11" d="M122.82,317v70a13.93,13.93,0,0,1-11-13.62V330.6A13.93,13.93,0,0,1,122.82,317Z"/><path class="cls-12" d="M276.85,209.91a13.61,13.61,0,0,1-13.61-13.61V164.06a12.19,12.19,0,1,0-24.37,0V196.3a13.61,13.61,0,0,1-13.62,13.61H193a12.19,12.19,0,0,0,0,24.37h32.24a13.62,13.62,0,0,1,13.62,13.61v32.25a12.19,12.19,0,0,0,24.37,0V247.89a13.61,13.61,0,0,1,13.61-13.61h32.24a12.19,12.19,0,0,0,0-24.37Z"/><ellipse class="cls-13" cx="254.66" cy="177.4" rx="6.09" ry="18.45"/><ellipse class="cls-13" cx="254.66" cy="212.66" rx="3.83" ry="11.61"/><path class="cls-6" d="M443.46,115.12V121a11.82,11.82,0,0,1-11.83,11.83H80.37A11.83,11.83,0,0,1,68.54,121v-5.87a12.24,12.24,0,0,1,.22-2.28,11.84,11.84,0,0,1,11.61-9.55H431.63a11.83,11.83,0,0,1,11.61,9.55A12.24,12.24,0,0,1,443.46,115.12Z"/><path class="cls-8" d="M443.24,112.84a11.82,11.82,0,0,1-11.61,9.54H80.37a11.84,11.84,0,0,1-11.61-9.54,11.84,11.84,0,0,1,11.61-9.55H431.63A11.83,11.83,0,0,1,443.24,112.84Z"/><ellipse class="cls-14" cx="324.29" cy="111.27" rx="44.36" ry="6.78"/><ellipse class="cls-14" cx="404.59" cy="111.27" rx="30.96" ry="4.73"/></svg>